<?xml version="1.0" encoding="UTF-8" standalone="no"?>
<!-- Created with Inkscape (http://www.inkscape.org/) -->

<svg
   width="263.52652"
   height="55.730156"
   viewBox="0 0 69.724724 14.745271"
   version="1.1"
   id="svg1321"
   inkscape:version="1.1 (c68e22c387, 2021-05-23)"
   sodipodi:docname="Avedok Logo-for dark bg.svg"
   xmlns:inkscape="http://www.inkscape.org/namespaces/inkscape"
   xmlns:sodipodi="http://sodipodi.sourceforge.net/DTD/sodipodi-0.dtd"
   xmlns="http://www.w3.org/2000/svg"
   xmlns:svg="http://www.w3.org/2000/svg">
  <sodipodi:namedview
     id="namedview1323"
     pagecolor="#ffffff"
     bordercolor="#666666"
     borderopacity="1.0"
     inkscape:pageshadow="2"
     inkscape:pageopacity="0.0"
     inkscape:pagecheckerboard="0"
     inkscape:document-units="mm"
     showgrid="false"
     fit-margin-top="0"
     fit-margin-left="0"
     fit-margin-right="0"
     fit-margin-bottom="0"
     units="px"
     inkscape:zoom="0.80882778"
     inkscape:cx="8.6545"
     inkscape:cy="-100.76311"
     inkscape:window-width="1600"
     inkscape:window-height="821"
     inkscape:window-x="-9"
     inkscape:window-y="-9"
     inkscape:window-maximized="1"
     inkscape:current-layer="g5007" />
  <defs
     id="defs1318">
    <inkscape:path-effect
       effect="fillet_chamfer"
       id="path-effect19699"
       is_visible="true"
       lpeversion="1"
       satellites_param="F,0,0,1,0,0,0,1 @ F,0,0,1,0,0,0,1 @ F,0,0,1,0,0,0,1 @ F,0,0,1,0,0,0,1"
       unit="px"
       method="auto"
       mode="F"
       radius="0"
       chamfer_steps="1"
       flexible="false"
       use_knot_distance="true"
       apply_no_radius="true"
       apply_with_radius="true"
       only_selected="false"
       hide_knots="false" />
    <inkscape:path-effect
       effect="fillet_chamfer"
       id="path-effect19705"
       is_visible="true"
       lpeversion="1"
       satellites_param="F,0,0,1,0,0,0,1 @ F,0,0,1,0,0,0,1 @ F,0,0,1,0,0,0,1 @ F,0,0,1,0,0,0,1 @ F,0,0,1,0,0,0,1 @ F,0,0,1,0,0,0,1 @ F,0,0,1,0,0,0,1 @ F,0,0,1,0,0,0,1 @ F,0,0,1,0,0,0,1 @ F,0,0,1,0,0,0,1 @ F,0,0,1,0,0,0,1 @ F,0,0,1,0,0,0,1 @ F,0,0,1,0,0,0,1 @ F,0,0,1,0,0,0,1 @ F,0,0,1,0,0,0,1 @ F,0,0,1,0,0,0,1 @ F,0,0,1,0,0,0,1 @ F,0,0,1,0,0,0,1 @ F,0,0,1,0,0,0,1"
       unit="px"
       method="auto"
       mode="F"
       radius="0"
       chamfer_steps="1"
       flexible="false"
       use_knot_distance="true"
       apply_no_radius="true"
       apply_with_radius="true"
       only_selected="false"
       hide_knots="false" />
    <inkscape:path-effect
       effect="fillet_chamfer"
       id="path-effect24198"
       is_visible="true"
       lpeversion="1"
       satellites_param="F,0,0,1,0,0,0,1 @ F,0,0,1,0,0,0,1 @ F,0,0,1,0,0,0,1 @ F,0,0,1,0,0,0,1"
       unit="px"
       method="auto"
       mode="F"
       radius="0"
       chamfer_steps="1"
       flexible="false"
       use_knot_distance="true"
       apply_no_radius="true"
       apply_with_radius="true"
       only_selected="false"
       hide_knots="false" />
    <inkscape:path-effect
       effect="fillet_chamfer"
       id="path-effect24204"
       is_visible="true"
       lpeversion="1"
       satellites_param="F,0,0,1,0,0,0,1 @ F,0,0,1,0,0,0,1 @ F,0,0,1,0,0,0,1 @ F,0,0,1,0,0,0,1 @ F,0,0,1,0,0,0,1 @ F,0,0,1,0,0,0,1 @ F,0,0,1,0,0,0,1 @ F,0,0,1,0,0,0,1 @ F,0,0,1,0,0,0,1 @ F,0,0,1,0,0,0,1 @ F,0,0,1,0,0,0,1 @ F,0,0,1,0,0,0,1 @ F,0,0,1,0,0,0,1 @ F,0,0,1,0,0,0,1 @ F,0,0,1,0,0,0,1 @ F,0,0,1,0,0,0,1 @ F,0,0,1,0,0,0,1 @ F,0,0,1,0,0,0,1 @ F,0,0,1,0,0,0,1"
       unit="px"
       method="auto"
       mode="F"
       radius="0"
       chamfer_steps="1"
       flexible="false"
       use_knot_distance="true"
       apply_no_radius="true"
       apply_with_radius="true"
       only_selected="false"
       hide_knots="false" />
    <inkscape:path-effect
       effect="fillet_chamfer"
       id="path-effect27506"
       is_visible="true"
       lpeversion="1"
       satellites_param="F,0,0,1,0,0,0,1 @ F,0,0,1,0,0,0,1 @ F,0,0,1,0,0,0,1 @ F,0,0,1,0,0,0,1"
       unit="px"
       method="auto"
       mode="F"
       radius="0"
       chamfer_steps="1"
       flexible="false"
       use_knot_distance="true"
       apply_no_radius="true"
       apply_with_radius="true"
       only_selected="false"
       hide_knots="false" />
    <inkscape:path-effect
       effect="fillet_chamfer"
       id="path-effect27512"
       is_visible="true"
       lpeversion="1"
       satellites_param="F,0,0,1,0,0,0,1 @ F,0,0,1,0,0,0,1 @ F,0,0,1,0,0,0,1 @ F,0,0,1,0,0,0,1 @ F,0,0,1,0,0,0,1 @ F,0,0,1,0,0,0,1 @ F,0,0,1,0,0,0,1 @ F,0,0,1,0,0,0,1 @ F,0,0,1,0,0,0,1 @ F,0,0,1,0,0,0,1 @ F,0,0,1,0,0,0,1 @ F,0,0,1,0,0,0,1 @ F,0,0,1,0,0,0,1 @ F,0,0,1,0,0,0,1 @ F,0,0,1,0,0,0,1 @ F,0,0,1,0,0,0,1 @ F,0,0,1,0,0,0,1 @ F,0,0,1,0,0,0,1 @ F,0,0,1,0,0,0,1"
       unit="px"
       method="auto"
       mode="F"
       radius="0"
       chamfer_steps="1"
       flexible="false"
       use_knot_distance="true"
       apply_no_radius="true"
       apply_with_radius="true"
       only_selected="false"
       hide_knots="false" />
  </defs>
  <g
     inkscape:label="Layer 1"
     inkscape:groupmode="layer"
     id="layer1"
     transform="translate(-120.41868,-107.44455)">
    <g
       id="g5007">
      <path
         id="path27498"
         style="color:#000000;fill:#ff8a38;fill-opacity:1;stroke:none;stroke-width:2.512;stroke-linecap:round;-inkscape-stroke:none"
         d="m 165.40552,107.44455 c -0.69341,-1.2e-4 -1.25573,0.56174 -1.2562,1.25517 v 3.67867 c -0.90505,-0.69201 -2.01164,-1.08714 -3.15942,-1.11721 -1.4444,-0.0378 -2.85326,0.50389 -3.89841,1.50256 -1.04525,0.9988 -1.65102,2.38272 -1.67629,3.82892 -0.0237,1.35456 0.46246,2.67033 1.3594,3.68478 0.89689,1.01434 2.14703,1.65969 3.49267,1.80408 1.39349,0.14953 2.79058,-0.24914 3.89229,-1.09573 0.0643,0.6404 0.60237,1.12856 1.24596,1.13048 0.69467,-4.1e-4 1.257,-0.56463 1.25522,-1.25927 v -12.15728 c -4.7e-4,-0.69306 -0.56217,-1.25476 -1.25522,-1.25517 z m -4.55258,6.32598 c 0.0235,-2e-5 0.0471,4.2e-4 0.0706,0.001 0.70984,0.0178 1.44523,0.3265 1.95532,0.81974 0.50998,0.49313 0.84298,1.22016 0.88416,1.92776 0.0479,0.82096 -0.30709,1.71227 -0.90358,2.27935 -0.59665,0.56722 -1.50606,0.87599 -2.32538,0.78807 -0.70368,-0.0755 -1.40923,-0.44027 -1.87767,-0.97 -0.46826,-0.52962 -0.74308,-1.2757 -0.73078,-1.98193 0.0138,-0.75123 0.35677,-1.53596 0.90051,-2.05551 0.52672,-0.50341 1.29514,-0.80791 2.02686,-0.80851 z" />
      <path
         id="path27500"
         style="color:#000000;fill:#ffb02a;fill-opacity:1;stroke:none;stroke-width:2.512;stroke-linecap:round;-inkscape-stroke:none"
         d="m 173.43749,111.37873 c -1.45969,0.006 -2.86944,0.60324 -3.88413,1.662 -1.04814,1.09369 -1.58942,2.58858 -1.47597,4.10284 0.0961,1.28174 0.65318,2.4874 1.56081,3.39247 0.90708,0.90454 2.11101,1.45726 3.38427,1.56081 1.29778,0.10562 2.59585,-0.26111 3.64701,-1.03543 1.05176,-0.77474 1.7928,-1.91022 2.06676,-3.19111 0.3354,-1.56808 -0.0566,-3.21247 -1.05484,-4.46263 -0.99746,-1.24924 -2.50838,-1.99202 -4.10289,-2.02792 -0.0471,-0.001 -0.094,-0.001 -0.14102,-0.001 z m 0.01,2.51139 c 0.0245,-1.6e-4 0.0481,4.7e-4 0.0726,0.001 0.82298,0.0178 1.68319,0.44512 2.19448,1.0855 0.51066,0.63945 0.73461,1.57176 0.56427,2.36828 -0.14103,0.65895 -0.5514,1.29398 -1.09676,1.69574 -0.54605,0.40219 -1.27588,0.60719 -1.95538,0.55195 -0.6673,-0.0542 -1.34376,-0.36387 -1.81529,-0.83407 -0.47105,-0.4697 -0.78159,-1.14019 -0.831,-1.79997 -0.0577,-0.77186 0.24994,-1.61773 0.78808,-2.17919 0.52192,-0.54467 1.3186,-0.88456 2.07901,-0.88927 z" />
      <path
         style="color:#000000;fill:#ff8d37;fill-opacity:1;stroke:none;stroke-width:2.512;stroke-linecap:round;-inkscape-stroke:none"
         inkscape:path-effect="#path-effect27506"
         inkscape:original-d="m 177.97908,108.38358 a 1.6133107,1.6133107 0 0 0 -1.6129,1.61292 1.6133107,1.6133107 0 0 0 1.6129,1.61292 1.6133107,1.6133107 0 0 0 1.61292,-1.61292 1.6133107,1.6133107 0 0 0 -1.61292,-1.61292 z"
         d="m 177.97908,108.38358 c -0.89069,2.3e-4 -1.61268,0.72223 -1.6129,1.61292 2.2e-4,0.89069 0.72221,1.61269 1.6129,1.61292 0.8907,-2.2e-4 1.6127,-0.72222 1.61292,-1.61292 -2.2e-4,-0.8907 -0.72222,-1.6127 -1.61292,-1.61292 z"
         id="path27502" />
      <path
         style="color:#000000;fill:#ff8d37;fill-opacity:1;stroke:none;stroke-width:2.512;stroke-linecap:round;-inkscape-stroke:none"
         inkscape:path-effect="#path-effect27512"
         inkscape:original-d="m 181.85605,108.01457 a 1.2559997,1.2559997 0 0 0 -1.25517,1.25622 v 11.54705 a 1.2559997,1.2559997 0 0 0 1.25517,1.25519 1.2559997,1.2559997 0 0 0 1.25517,-1.25519 v -1.18772 a 1.2559997,1.2559997 0 0 0 0.0119,-0.01 l 1.79996,-1.69776 2.98263,3.72261 a 1.2559997,1.2559997 0 0 0 1.76521,0.19324 1.2559997,1.2559997 0 0 0 0.1972,-1.76625 l -3.11243,-3.87901 2.29676,-2.16692 a 1.2559997,1.2559997 0 0 0 0.0542,-1.77646 1.2559997,1.2559997 0 0 0 -0.87701,-0.39454 1.2559997,1.2559997 0 0 0 -0.89949,0.34446 l -4.21937,3.97713 v -6.90555 a 1.2559997,1.2559997 0 0 0 -1.25517,-1.25622 z"
         d="m 181.85605,108.01457 c -0.69343,4.6e-4 -1.25529,0.56279 -1.25517,1.25622 v 11.54705 c 4.5e-4,0.69303 0.56214,1.25473 1.25517,1.25519 0.69303,-4.6e-4 1.25472,-0.56216 1.25517,-1.25519 v -1.18772 c 0.004,-0.003 0.008,-0.007 0.0119,-0.01 l 1.79996,-1.69776 2.98263,3.72261 c 0.43419,0.54063 1.22434,0.62713 1.76521,0.19324 0.54255,-0.43308 0.63088,-1.22417 0.1972,-1.76625 l -3.11243,-3.87901 2.29676,-2.16692 c 0.50592,-0.47541 0.5302,-1.27109 0.0542,-1.77646 -0.22842,-0.24265 -0.54391,-0.38458 -0.87701,-0.39454 -0.33369,-0.009 -0.65735,0.11467 -0.89949,0.34446 l -4.21937,3.97713 v -6.90555 c 1.2e-4,-0.69343 -0.56174,-1.25576 -1.25517,-1.25622 z"
         id="path27508" />
      <path
         style="color:#000000;fill:#1a1a1a;fill-opacity:0;stroke:none;stroke-width:2.512;stroke-linecap:round;-inkscape-stroke:none"
         d="m 121.88024,112.70323 c 1.27123,-0.77033 2.79708,-1.1122 4.27546,-0.95788 0.48429,0.0506 0.96629,0.15368 1.4127,0.34822 0.44638,0.19443 0.857,0.48335 1.15726,0.86665 0.36267,0.46298 0.54993,1.04334 0.63015,1.62594 0.0803,0.58263 0.0599,1.17374 0.0473,1.7617 -0.0311,1.44074 -0.0158,2.88245 0.0467,4.32219"
         id="path27514" />
      <path
         id="path27516"
         style="color:#000000;fill:#ffffff;fill-opacity:1;stroke:none;stroke-width:2.512;stroke-linecap:round;-inkscape-stroke:none"
         d="m 125.46154,110.45473 c -1.48469,-0.002 -2.95745,0.40267 -4.23266,1.17546 -0.5919,0.35906 -0.78167,1.12939 -0.42423,1.72228 0.35892,0.59473 1.13234,0.78523 1.72638,0.42522 1.03112,-0.62483 2.29351,-0.90914 3.49267,-0.78398 0.39428,0.0411 0.75047,0.12323 1.04259,0.25043 0.28736,0.1252 0.52616,0.30373 0.67253,0.49061 0.23033,0.34913 0.29987,0.71458 0.37514,1.03645 -1.15815,-0.0138 -2.51458,-0.23536 -4.03439,-0.0138 -0.51496,0.0748 -1.06869,0.20812 -1.61494,0.47528 -0.55175,0.2699 -1.08519,0.67069 -1.47597,1.2511 -0.47999,0.71303 -0.65421,1.5623 -0.53254,2.3918 0.12124,0.82478 0.52427,1.55952 1.12333,2.10867 0.51413,0.47127 1.12398,0.76213 1.73868,0.91992 0.61042,0.15665 1.2133,0.17841 1.77745,0.13094 1.06115,-0.0892 2.13552,-0.44038 3.03574,-1.14685 0.0251,-0.0198 0.0497,-0.0401 0.0746,-0.0603 0.0811,0.64766 0.64491,1.12522 1.29708,1.09879 0.69369,-0.0293 1.23215,-0.6157 1.20204,-1.30935 -0.0609,-1.41269 -0.0773,-2.82817 -0.0471,-4.24187 0.0119,-0.57727 0.0429,-1.23381 -0.0572,-1.95839 -0.10088,-0.73264 -0.34185,-1.53044 -0.88925,-2.22929 -0.45414,-0.57976 -1.03619,-0.9802 -1.64158,-1.24394 -0.60075,-0.26168 -1.21027,-0.38469 -1.78463,-0.44462 -0.27454,-0.0287 -0.54997,-0.0425 -0.82489,-0.0429 z m 7.7815,0.65314 c -0.17168,0.0119 -0.33949,0.0566 -0.49371,0.13292 -0.64685,0.31952 -0.91297,1.10235 -0.59487,1.7499 1.33905,2.72136 2.6626,5.42261 4.02009,8.1689 0.006,0.0119 0.01,0.022 0.0158,0.0326 0.006,0.0138 0.0138,0.0279 0.0198,0.0419 0,0.004 0.006,0.006 0.006,0.01 0.0235,0.0473 0.0502,0.093 0.0797,0.13687 0.008,0.0119 0.0158,0.0239 0.0257,0.0358 0.0273,0.038 0.056,0.0746 0.0868,0.10938 0.01,0.01 0.0198,0.0214 0.0299,0.0316 0.0356,0.0372 0.073,0.0724 0.11234,0.10523 0.006,0.004 0.01,0.008 0.0139,0.0119 0.0435,0.0346 0.0886,0.0663 0.13589,0.0951 0.008,0.004 0.0158,0.01 0.0225,0.0138 0.0257,0.0158 0.0518,0.0316 0.0787,0.0461 0.0198,0.008 0.0382,0.0158 0.0574,0.0235 0.0138,0.006 0.0271,0.01 0.0407,0.0158 0.0435,0.0178 0.0878,0.0324 0.13292,0.0449 0.0138,0.004 0.0293,0.008 0.0439,0.0119 0.0471,0.0119 0.0949,0.0204 0.14301,0.0265 0.0138,0.002 0.0257,0.004 0.0388,0.004 0.0461,0.004 0.092,0.006 0.13806,0.006 0.0198,-2.6e-4 0.0388,-10e-4 0.0581,-0.002 0.0413,-0.002 0.0827,-0.006 0.12362,-0.0119 0.0241,-0.004 0.0487,-0.008 0.0726,-0.0138 0.035,-0.008 0.0698,-0.0158 0.10424,-0.0255 0.0241,-0.008 0.0483,-0.0158 0.0716,-0.0245 0.0366,-0.0119 0.0722,-0.0271 0.10721,-0.0429 0.008,-0.004 0.0178,-0.008 0.0267,-0.0119 0.0273,-0.0139 0.0544,-0.0283 0.0807,-0.0439 0.01,-0.006 0.0178,-0.01 0.0267,-0.0158 v -10e-4 c 0.0423,-0.0265 0.0835,-0.0556 0.12264,-0.0868 0.01,-0.006 0.0178,-0.0119 0.0267,-0.0198 v -0.002 c 0.0413,-0.0346 0.0799,-0.072 0.1165,-0.11135 0.006,-0.002 0.006,-0.004 0.008,-0.006 0.006,-0.004 0.008,-0.008 0.0119,-0.0119 0.0789,-0.0876 0.14558,-0.18573 0.19831,-0.29129 0,-0.004 0.006,-0.008 0.008,-0.0138 v -0.004 -0.002 c 1.36752,-2.7664 2.69919,-5.4865 4.04766,-8.22717 0.31752,-0.64863 0.0497,-1.43186 -0.599,-1.7499 -0.31034,-0.15309 -0.66867,-0.17702 -0.99659,-0.0665 -0.32892,0.11176 -0.59994,0.34963 -0.75329,0.66133 -0.96356,1.95814 -1.91653,3.90387 -2.87936,5.86093 -0.96289,-1.95718 -1.91681,-3.90266 -2.88037,-5.86093 -0.1533,-0.3117 -0.42433,-0.54963 -0.75331,-0.66133 -0.16298,-0.0552 -0.33528,-0.0777 -0.50699,-0.0664 z m 15.4199,0.0726 c -0.10701,2.8e-4 -0.21415,0.004 -0.3209,0.01 -0.85418,0.053 -1.69649,0.30682 -2.44904,0.7574 -1.50659,0.90201 -2.4907,2.50079 -2.60851,4.25721 -0.0676,1.00842 0.15231,2.00845 0.6143,2.89364 0.46135,0.88397 1.14671,1.62246 1.97478,2.15569 0.93186,0.60012 2.02034,0.92749 3.12875,0.93526 1.10836,0.008 2.20083,-0.30225 3.14101,-0.88927 0.58743,-0.36822 0.76537,-1.14276 0.39762,-1.73047 -0.36687,-0.58884 -1.14171,-0.76871 -1.73047,-0.40168 -0.52851,0.32992 -1.16984,0.51031 -1.79281,0.50594 -0.62304,-0.004 -1.26089,-0.19206 -1.78469,-0.52946 -0.46602,-0.30014 -0.85815,-0.72763 -1.109,-1.20817 -0.0435,-0.0837 -0.0827,-0.1707 -0.11848,-0.2586 0.91405,0.008 1.82884,0.01 2.74243,0.0119 1.34408,5.3e-4 2.68909,-0.006 4.03333,-0.0198 0.0461,-0.004 0.0918,-0.01 0.13687,-0.0198 0.0585,-0.008 0.1163,-0.0198 0.17268,-0.0368 0.16298,-0.0457 0.3175,-0.12283 0.45178,-0.2259 0.19861,-0.1525 0.35211,-0.36102 0.44668,-0.59284 0.0945,-0.23181 0.13074,-0.48616 0.11353,-0.73593 -0.006,-0.0698 -0.0138,-0.13886 -0.0267,-0.20749 -0.13193,-0.9045 -0.49061,-1.76186 -1.04054,-2.49299 -0.56447,-0.75042 -1.31079,-1.34271 -2.17098,-1.71924 -0.70132,-0.307 -1.45257,-0.46088 -2.20172,-0.45894 z m 0.0119,2.52468 v 10e-4 c 0.41076,-0.002 0.82006,0.0738 1.18159,0.23201 0.45807,0.20051 0.87386,0.53158 1.17441,0.93116 0.16357,0.2175 0.29657,0.46075 0.39454,0.71755 -0.89239,0.006 -1.78431,0.008 -2.67696,0.008 -0.92699,-4.2e-4 -1.85364,-0.004 -2.78021,-0.0119 0.23466,-0.60699 0.67496,-1.15651 1.21533,-1.48006 0.43323,-0.25937 0.96321,-0.39387 1.4913,-0.39761 z m -23.42224,3.4814 c 0.63783,-0.004 1.35585,0.0518 2.06983,0.0839 -0.0293,0.64786 -0.314,1.30092 -0.73801,1.63848 -0.424,0.33757 -1.05766,0.56749 -1.69978,0.62147 -0.34582,0.0291 -0.66831,0.0119 -0.94241,-0.0584 -0.26989,-0.0692 -0.50226,-0.19344 -0.66135,-0.33934 -0.17742,-0.16259 -0.30736,-0.40514 -0.33932,-0.62248 -0.0315,-0.21263 0.0267,-0.46484 0.1349,-0.62555 0.093,-0.13825 0.26835,-0.28692 0.4947,-0.39762 0.23188,-0.11334 0.52651,-0.1976 0.86884,-0.24735 0.24942,-0.0362 0.52265,-0.051 0.81258,-0.0532 z"
         sodipodi:nodetypes="cccsssccssscsssscccccssscccccsccccccscccscscscscssccccccscccccccscccccccccssccccssssscccssccccccssccsssccsscccscccsssssssscss" />
      <path
         style="color:#000000;fill:#1a1a1a;fill-opacity:0;stroke:none;stroke-width:2.512;stroke-linecap:round;-inkscape-stroke:none"
         d="m 152.84156,116.08881 c -0.0943,-0.71329 -0.37567,-1.401 -0.80817,-1.97601 -0.4325,-0.57501 -1.01522,-1.03599 -1.67435,-1.32452 -1.2147,-0.53171 -2.68426,-0.44235 -3.8219,0.23878 -1.13766,0.68115 -1.91144,1.93802 -2.00019,3.26101 -0.0514,0.76788 0.11828,1.54787 0.47438,2.23012 0.35613,0.68226 0.8965,1.26561 1.54355,1.68229 0.72785,0.46872 1.59033,0.72569 2.45602,0.73176 0.86571,0.006 1.7317,-0.2388 2.46605,-0.69728"
         id="path27518" />
    </g>
  </g>
</svg>
