<?xml version="1.0" encoding="UTF-8" standalone="no"?>
<!-- Created with Inkscape (http://www.inkscape.org/) -->

<svg
   width="23.58568mm"
   height="18.566561mm"
   viewBox="0 0 23.58568 18.566561"
   version="1.1"
   id="svg5"
   inkscape:version="1.1 (c68e22c387, 2021-05-23)"
   sodipodi:docname="Furniture.svg"
   xmlns:inkscape="http://www.inkscape.org/namespaces/inkscape"
   xmlns:sodipodi="http://sodipodi.sourceforge.net/DTD/sodipodi-0.dtd"
   xmlns="http://www.w3.org/2000/svg"
   xmlns:svg="http://www.w3.org/2000/svg">
  <sodipodi:namedview
     id="namedview7"
     pagecolor="#ffffff"
     bordercolor="#666666"
     borderopacity="1.0"
     inkscape:pageshadow="2"
     inkscape:pageopacity="0.0"
     inkscape:pagecheckerboard="0"
     inkscape:document-units="mm"
     showgrid="false"
     inkscape:snap-global="false"
     inkscape:zoom="0.77229199"
     inkscape:cx="-224.00854"
     inkscape:cy="-20.070129"
     inkscape:window-width="1600"
     inkscape:window-height="821"
     inkscape:window-x="-9"
     inkscape:window-y="-9"
     inkscape:window-maximized="1"
     inkscape:current-layer="layer1"
     inkscape:snap-intersection-paths="true"
     inkscape:object-paths="true"
     inkscape:snap-smooth-nodes="true"
     inkscape:snap-midpoints="true"
     inkscape:snap-text-baseline="true"
     fit-margin-top="0"
     fit-margin-left="0"
     fit-margin-right="0"
     fit-margin-bottom="0" />
  <defs
     id="defs2">
    <inkscape:path-effect
       effect="bspline"
       id="path-effect1165"
       is_visible="true"
       lpeversion="1"
       weight="33.333333"
       steps="2"
       helper_size="0"
       apply_no_weight="true"
       apply_with_weight="true"
       only_selected="false" />
    <inkscape:path-effect
       effect="bspline"
       id="path-effect1146"
       is_visible="true"
       lpeversion="1"
       weight="33.333333"
       steps="2"
       helper_size="0"
       apply_no_weight="true"
       apply_with_weight="true"
       only_selected="false" />
    <inkscape:path-effect
       effect="bspline"
       id="path-effect15282"
       is_visible="true"
       lpeversion="1"
       weight="33.333333"
       steps="2"
       helper_size="0"
       apply_no_weight="true"
       apply_with_weight="true"
       only_selected="false" />
    <inkscape:path-effect
       effect="bspline"
       id="path-effect15278"
       is_visible="true"
       lpeversion="1"
       weight="33.333333"
       steps="2"
       helper_size="0"
       apply_no_weight="true"
       apply_with_weight="true"
       only_selected="false" />
    <inkscape:path-effect
       effect="bspline"
       id="path-effect1503"
       is_visible="true"
       lpeversion="1"
       weight="33.333333"
       steps="2"
       helper_size="0"
       apply_no_weight="true"
       apply_with_weight="true"
       only_selected="false" />
    <inkscape:path-effect
       effect="bspline"
       id="path-effect1499"
       is_visible="true"
       lpeversion="1"
       weight="33.333333"
       steps="2"
       helper_size="0"
       apply_no_weight="true"
       apply_with_weight="true"
       only_selected="false" />
    <inkscape:path-effect
       effect="fillet_chamfer"
       id="path-effect10669"
       is_visible="true"
       lpeversion="1"
       satellites_param="F,0,0,1,0,0,0,1 @ F,0,0,1,0,2.0583048,0,1 @ F,0,0,1,0,0,0,1"
       unit="px"
       method="auto"
       mode="F"
       radius="0"
       chamfer_steps="1"
       flexible="false"
       use_knot_distance="true"
       apply_no_radius="true"
       apply_with_radius="true"
       only_selected="false"
       hide_knots="false" />
    <inkscape:path-effect
       effect="fillet_chamfer"
       id="path-effect9395"
       is_visible="true"
       lpeversion="1"
       satellites_param="F,0,0,1,0,6.6918489,0,1 @ F,0,0,1,0,17.25,0,1 @ F,0,0,1,0,17.75,0,1"
       unit="px"
       method="auto"
       mode="F"
       radius="0"
       chamfer_steps="1"
       flexible="false"
       use_knot_distance="true"
       apply_no_radius="true"
       apply_with_radius="true"
       only_selected="false"
       hide_knots="false" />
    <inkscape:path-effect
       effect="fillet_chamfer"
       id="path-effect7401"
       is_visible="true"
       lpeversion="1"
       satellites_param="F,0,0,1,0,0,0,1 @ F,0,0,1,0,0,0,1 @ F,0,0,1,0,0,0,1 @ F,0,0,1,0,0,0,1 @ F,0,0,1,0,0,0,1 @ F,0,0,1,0,0.39718445,0,1 @ F,0,0,1,0,0,0,1 @ F,0,0,1,0,0,0,1 @ F,0,0,1,0,0,0,1 @ F,0,0,1,0,0,0,1"
       unit="px"
       method="auto"
       mode="F"
       radius="0"
       chamfer_steps="1"
       flexible="false"
       use_knot_distance="true"
       apply_no_radius="true"
       apply_with_radius="true"
       only_selected="false"
       hide_knots="false" />
    <inkscape:path-effect
       effect="spiro"
       id="path-effect7113"
       is_visible="true"
       lpeversion="1" />
    <inkscape:path-effect
       effect="spiro"
       id="path-effect6623"
       is_visible="true"
       lpeversion="1" />
    <inkscape:path-effect
       effect="spiro"
       id="path-effect6058"
       is_visible="true"
       lpeversion="1" />
    <inkscape:path-effect
       effect="bspline"
       id="path-effect1983"
       is_visible="true"
       lpeversion="1"
       weight="33.333333"
       steps="2"
       helper_size="0"
       apply_no_weight="true"
       apply_with_weight="true"
       only_selected="false" />
    <inkscape:path-effect
       effect="bspline"
       id="path-effect1864"
       is_visible="true"
       lpeversion="1"
       weight="33.333333"
       steps="2"
       helper_size="0"
       apply_no_weight="true"
       apply_with_weight="true"
       only_selected="false" />
    <inkscape:path-effect
       effect="bspline"
       id="path-effect949"
       is_visible="true"
       lpeversion="1"
       weight="33.333333"
       steps="2"
       helper_size="0"
       apply_no_weight="true"
       apply_with_weight="true"
       only_selected="false" />
  </defs>
  <g
     inkscape:label="Layer 1"
     inkscape:groupmode="layer"
     id="layer1"
     transform="translate(-102.97519,-162.86449)">
    <path
       id="rect846"
       style="color:#000000;fill:#782121;fill-opacity:1;stroke-width:3.77953;stroke-linecap:round;stroke-linejoin:bevel;-inkscape-stroke:none"
       d="m 141.28125,616.89062 c -8.17914,0 -14.83594,6.66463 -14.83594,14.84376 v 30.64257 c 0,8.17913 6.6568,14.83789 14.83594,14.83789 h 59.69727 c 8.17914,0 14.83789,-6.65876 14.83789,-14.83789 v -30.64257 c 0,-8.17913 -6.65875,-14.84376 -14.83789,-14.84376 z m 0,4.9961 h 59.69727 c 5.49563,0 9.84179,4.35203 9.84179,9.84766 v 30.64257 c 0,5.49563 -4.34616,9.83985 -9.84179,9.83985 h -59.69727 c -5.49563,0 -9.83984,-4.34422 -9.83984,-9.83985 v -30.64257 c 0,-5.49563 4.34421,-9.84766 9.83984,-9.84766 z m -20.38086,58.38476 a 2.4999999,2.4999999 0 0 0 -2.49414,2.50196 2.4999999,2.4999999 0 0 0 2.49414,2.49414 c 33.48648,9.8e-4 66.97618,9.8e-4 100.46094,0 a 2.4999999,2.4999999 0 0 0 2.49414,-2.49414 2.4999999,2.4999999 0 0 0 -2.49414,-2.50196 c -33.48466,9.9e-4 -66.97456,9.9e-4 -100.46094,0 z"
       transform="scale(0.26458333)" />
    <path
       id="rect11881"
       style="color:#000000;fill:#782121;fill-opacity:1;stroke-width:3.77953;stroke-linecap:round;stroke-linejoin:bevel;-inkscape-stroke:none"
       d="m 296.51562,616.43945 c -5.22017,0 -9.49999,4.27983 -9.5,9.5 v 50.31641 c 0,5.22017 4.27983,9.5 9.5,9.5 h 24.26368 c 5.22017,0 9.50195,-4.27983 9.50195,-9.5 v -50.31641 c 0,-5.22017 -4.28178,-9.5 -9.50195,-9.5 z m 0,5.00586 h 24.26368 c 2.53665,0 4.49609,1.95748 4.49609,4.49414 v 50.31641 c 0,2.53667 -1.95944,4.50195 -4.49609,4.50195 h -24.26368 c -2.53666,0 -4.49609,-1.96528 -4.49609,-4.50195 v -50.31641 c 0,-2.53666 1.95943,-4.49414 4.49609,-4.49414 z m 9.75977,4.10352 c -0.87211,0 -1.57422,0.70209 -1.57422,1.57422 0,0.87212 0.70211,1.57422 1.57422,1.57422 h 4.74414 c 0.87211,0 1.57422,-0.7021 1.57422,-1.57422 0,-0.87213 -0.70211,-1.57422 -1.57422,-1.57422 z m 2.37305,46.52734 a 2.8294771,2.8294771 0 0 0 -2.83008,2.83008 2.8294771,2.8294771 0 0 0 2.83008,2.82813 2.8294771,2.8294771 0 0 0 2.82812,-2.82813 2.8294771,2.8294771 0 0 0 -2.82812,-2.83008 z"
       transform="scale(0.26458333)" />
    <path
       id="rect11887"
       style="color:#000000;fill:#782121;fill-opacity:1;stroke-width:3.77953;stroke-linecap:round;stroke-linejoin:bevel;-inkscape-stroke:none"
       d="m 410.75,615.55273 c -6.66132,0 -12.12108,5.27037 -12.46289,11.84961 -0.79424,-0.002 -1.58849,-0.004 -2.38281,-0.004 v 0.0156 a 2.5002562,2.5002562 0 0 0 -0.0273,-0.0117 c -0.14135,0.002 -0.23862,0.10623 -0.37695,0.11719 l -0.006,-0.082 a 2.5002562,2.5002562 0 0 0 -0.0898,0.11133 c -2.26073,0.22375 -4.1371,1.5929 -5.07227,3.25586 -0.97361,1.73125 -1.2837,3.65806 -1.07031,5.5039 0.0151,9.83192 -0.0295,19.67958 0.0234,29.53711 a 2.5002562,2.5002562 0 0 0 0,0.0527 c 0.10847,4.01881 3.66783,7.28247 7.73437,6.74804 1.43021,-9.8e-4 2.86073,6.1e-4 4.29102,0 -1.1582,3.24586 -2.31704,6.49051 -3.47657,9.73633 a 2.5000062,2.5000062 0 0 0 1.51368,3.19531 2.5000062,2.5000062 0 0 0 3.19531,-1.51367 c 1.35957,-3.80583 2.71811,-7.61284 4.07617,-11.41992 18.09846,-0.002 36.20233,0.0149 54.30664,-0.008 1.35848,3.80897 2.71588,7.61802 4.07617,11.42578 a 2.5000062,2.5000062 0 0 0 3.19727,1.51367 2.5000062,2.5000062 0 0 0 1.51172,-3.19531 c -1.16134,-3.25081 -2.32053,-6.50107 -3.48047,-9.75195 1.96014,-0.003 3.92068,-0.003 5.88086,-0.008 a 2.5002562,2.5002562 0 0 0 0.30273,-0.0215 c 2.32573,-0.29027 4.09437,-1.89321 4.9668,-3.61523 0.84427,-1.66629 1.08444,-3.46836 0.90234,-5.17383 -0.0151,-9.83838 0.0295,-19.68663 -0.0234,-29.55078 a 2.5002562,2.5002562 0 0 0 0,-0.002 2.5002562,2.5002562 0 0 0 0,-0.002 2.5002562,2.5002562 0 0 0 0,-0.002 2.5002562,2.5002562 0 0 0 0,-0.002 2.5002562,2.5002562 0 0 0 0,-0.002 2.5002562,2.5002562 0 0 0 0,-0.002 2.5002562,2.5002562 0 0 0 0,-0.002 2.5002562,2.5002562 0 0 0 0,-0.002 2.5002562,2.5002562 0 0 0 0,-0.002 2.5002562,2.5002562 0 0 0 0,-0.002 2.5002562,2.5002562 0 0 0 0,-0.002 2.5002562,2.5002562 0 0 0 0,-0.002 2.5002562,2.5002562 0 0 0 0,-0.002 2.5002562,2.5002562 0 0 0 0,-0.002 2.5002562,2.5002562 0 0 0 0,-0.002 2.5002562,2.5002562 0 0 0 0,-0.002 2.5002562,2.5002562 0 0 0 0,-0.002 2.5002562,2.5002562 0 0 0 0,-0.002 2.5002562,2.5002562 0 0 0 0,-0.002 2.5002562,2.5002562 0 0 0 0,-0.002 2.5002562,2.5002562 0 0 0 0,-0.002 2.5002562,2.5002562 0 0 0 0,-0.002 2.5002562,2.5002562 0 0 0 0,-0.002 2.5002562,2.5002562 0 0 0 0,-0.002 2.5002562,2.5002562 0 0 0 0,-0.002 2.5002562,2.5002562 0 0 0 0,-0.002 2.5002562,2.5002562 0 0 0 0,-0.002 2.5002562,2.5002562 0 0 0 0,-0.002 2.5002562,2.5002562 0 0 0 0,-0.002 2.5002562,2.5002562 0 0 0 0,-0.002 2.5002562,2.5002562 0 0 0 0,-0.002 2.5002562,2.5002562 0 0 0 0,-0.002 c -0.0975,-3.86892 -3.34587,-6.90183 -7.08594,-6.8711 l -0.002,0.01 c -0.3292,0.003 -0.66307,0.0341 -0.99805,0.084 -0.25886,0.0129 -0.57527,0.006 -0.91797,-0.006 -0.33604,-6.58469 -5.79958,-11.86133 -12.46484,-11.86133 z m 0,5.00586 h 46.04102 c 4.12277,0 7.37456,3.18262 7.48828,7.27344 -1.21678,0.4245 -2.43898,1.19515 -3.27344,2.47656 a 2.5002562,2.5002562 0 0 0 -0.0293,0.0449 c -2.2659,3.66134 -1.14611,7.42285 -1.31445,9.61914 a 2.5002562,2.5002562 0 0 0 -0.008,0.18359 v 8.48242 H 407.8709 c -0.002,-4.93001 0.0999,-9.89337 -0.0664,-14.93359 a 2.5002562,2.5002562 0 0 0 -0.0156,-0.19922 c -0.30632,-2.71798 -2.1584,-4.83454 -4.52539,-5.7168 0.13539,-4.06997 3.37808,-7.23047 7.48633,-7.23047 z m 60.34766,11.78321 v 0.002 c 1.07418,-0.0582 2.13399,0.87151 2.16211,1.98828 0.0525,9.85761 0.008,19.73214 0.0234,29.61719 a 2.5002562,2.5002562 0 0 0 0.0215,0.30273 c 0.0994,0.80187 -0.0631,1.83819 -0.38477,2.47266 -0.31332,0.61833 -0.55331,0.81548 -1.09961,0.89258 -24.98086,0.0593 -49.96846,0.0104 -74.96289,0.0293 a 2.5002562,2.5002562 0 0 0 -0.42187,0.0391 c -1.00279,0.17234 -2.12505,-0.83444 -2.1543,-1.91993 -0.0525,-9.85557 -0.006,-19.72441 -0.0215,-29.60742 a 2.5002562,2.5002562 0 0 0 -0.0234,-0.33398 c -0.10961,-0.81113 0.0839,-1.91564 0.45117,-2.56836 0.36699,-0.65276 0.59014,-0.84059 1.24805,-0.84766 1.37042,9.1e-4 2.74087,-9e-4 4.11133,0 a 2.5002562,2.5002562 0 0 0 0.41992,-0.0391 c 1.08219,-0.18406 2.2068,0.61511 2.33984,1.69141 0.17764,5.61498 0.0302,11.32356 0.082,17.10351 a 2.5002562,2.5002562 0 0 0 2.50195,2.48047 h 56.76758 a 2.5002562,2.5002562 0 0 0 2.50196,-2.50195 v -10.88867 c 0.24,-3.3797 -0.28763,-5.82461 0.56836,-7.23438 0.32428,-0.48877 0.49897,-0.54022 1.41796,-0.61328 0.93857,-0.0745 2.33791,0.10671 3.97071,-0.008 a 2.5002562,2.5002562 0 0 0 0.26562,-0.0293 c 0.0714,-0.0113 0.14341,-0.0236 0.21485,-0.0273 z"
       transform="scale(0.26458333)" />
    <path
       id="circle2651"
       style="color:#000000;fill:#782121;fill-opacity:1;stroke-width:3.77953;stroke-linecap:round;stroke-linejoin:round;-inkscape-stroke:none"
       d="m 171.85156,711.55664 c -6.64519,0.094 -11.76568,6.37425 -12.10547,13.75 -0.35074,7.61368 4.47788,14.53494 11.43555,14.85547 6.95767,0.32053 12.39339,-6.12655 12.74414,-13.74023 0.35075,-7.61369 -4.47006,-14.53495 -11.42773,-14.85547 -0.21743,-0.01 -0.43213,-0.0128 -0.64649,-0.01 z m 0.0762,5.00391 c 0.11356,-0.002 0.22619,6.2e-4 0.33985,0.006 3.63713,0.16755 6.91567,4.20569 6.66601,9.625 -0.24965,5.41931 -3.88435,9.14021 -7.52148,8.97265 -3.63712,-0.16755 -6.91567,-4.20764 -6.66602,-9.62695 0.24186,-5.24996 3.66148,-8.90557 7.18164,-8.97656 z m 29.04102,9.15039 c -5.45874,0.005 -10.61962,4.242 -12.6543,10.21679 -2.45697,7.21488 0.24465,15.20394 6.83789,17.44922 6.59321,2.24527 13.61725,-2.4316 16.07422,-9.64648 2.45696,-7.21484 -0.25249,-15.20786 -6.8457,-17.45313 -1.13321,-0.3859 -2.27916,-0.56734 -3.41211,-0.5664 z m -59.67383,0.006 c -1.13294,-9.4e-4 -2.2789,0.17854 -3.41211,0.56445 -6.59323,2.24528 -9.30266,10.23828 -6.8457,17.45313 2.45697,7.21487 9.47904,11.88394 16.07227,9.63867 6.59322,-2.24528 9.29681,-10.22653 6.83984,-17.44141 -2.03467,-5.97479 -7.19557,-10.21032 -12.6543,-10.21484 z m -0.12109,5.01562 c 3.11412,-0.028 6.56934,2.47752 8.04492,6.81055 1.74884,5.13545 -0.27409,9.92589 -3.7207,11.09961 -3.44662,1.17372 -7.97382,-1.38604 -9.72266,-6.52149 -1.74884,-5.13544 0.27214,-9.9337 3.71875,-11.10742 0.53853,-0.18339 1.103,-0.27606 1.67969,-0.28125 z m 59.91406,0.002 c 0.57659,0.005 1.14115,0.0978 1.67969,0.28124 3.4466,1.17372 5.47149,5.96612 3.72265,11.10157 -1.74884,5.13544 -6.27996,7.70301 -9.72656,6.52929 -3.44663,-1.17372 -5.46759,-5.97197 -3.71875,-11.10742 1.47559,-4.33303 4.92937,-6.83425 8.04297,-6.80468 z m -31.25391,16.21874 c -11.51166,0.1703 -22.61158,9.42339 -26.65429,19.87696 -1.13298,2.92962 -1.7737,6.02619 -1.53516,8.97656 0.23853,2.95041 1.51115,5.91206 4.19141,7.64063 2.27226,1.46543 4.92087,1.60368 7.18359,1.0332 2.26272,-0.57052 4.29571,-1.71046 6.27344,-2.89258 3.95546,-2.36421 7.74105,-4.76992 10.49805,-4.78516 2.83606,-0.0151 6.63016,2.31551 10.6289,4.6211 1.99937,1.15283 4.06344,2.26539 6.3418,2.82812 2.27836,0.56274 4.9114,0.4665 7.23437,-0.92187 2.29239,-1.37012 3.69052,-3.71722 4.12696,-6.20899 0.43644,-2.49176 0.10281,-5.16488 -0.65039,-8.00195 -1.51533,-5.70765 -5.21764,-11.03525 -9.95704,-15.08203 -4.73939,-4.04678 -10.56885,-6.84985 -16.5664,-7.07031 -0.37198,-0.0137 -0.74389,-0.0192 -1.11524,-0.0137 z m 0.51172,4.99415 c 0.14013,9e-4 0.28062,0.005 0.41992,0.01 4.52221,0.1663 9.44886,2.42205 13.50196,5.88281 4.0531,3.46077 7.18521,8.08992 8.37109,12.55664 0.63838,2.40458 0.80767,4.45043 0.56055,5.86133 -0.24711,1.41086 -0.72174,2.15151 -1.76563,2.77539 -1.10287,0.65915 -2.05124,0.71909 -3.46875,0.36914 -1.41751,-0.34998 -3.16811,-1.22616 -5.04882,-2.31054 -3.76142,-2.16877 -8.0083,-5.32147 -13.1543,-5.29297 -5.1308,0.0265 -9.32684,3.28232 -13.03711,5.5 -1.85514,1.1088 -3.56978,1.98866 -4.93164,2.33203 -1.36186,0.34318 -2.20586,0.28941 -3.24805,-0.38281 -1.16315,-0.75016 -1.76354,-1.93764 -1.91797,-3.84766 -0.15443,-1.91002 0.28899,-4.38364 1.21094,-6.76758 3.28894,-8.50448 13.6799,-16.7428 22.50781,-16.68554 z"
       transform="scale(0.26458333)" />
    <path
       id="path11897"
       style="color:#000000;fill:#782121;fill-opacity:1;stroke-width:3.77953;stroke-linecap:round;stroke-linejoin:round;-inkscape-stroke:none;paint-order:stroke fill markers"
       d="m 308.98047,726.13477 c -0.86152,0.002 -1.73416,0.11641 -2.5957,0.35351 -4.5949,1.26456 -7.64991,5.66063 -7.23438,10.4082 0.35696,4.07847 3.19677,7.45949 6.99805,8.61524 v 3.99414 c -0.8305,0.25952 -1.631,0.64491 -2.36914,1.1582 l -37.27735,25.91797 c -2.28788,1.59099 -3.00793,4.44882 -2.29687,6.7168 0.71105,2.26798 2.93403,4.20898 5.7207,4.20898 h 77.33984 c 2.83636,0 5.09506,-1.97419 5.81836,-4.28125 0.72331,-2.3071 -0.005,-5.20882 -2.33398,-6.82812 l -37.01172,-25.73438 c -0.80487,-0.55969 -1.68239,-0.96272 -2.5918,-1.2207 v -6.03516 h -0.32812 a 2.5000062,2.5000062 0 0 0 -2.26367,-2.48828 c -2.37385,-0.22375 -4.21984,-2.0837 -4.42774,-4.45898 -0.20787,-2.37528 1.289,-4.51969 3.58789,-5.15235 2.2989,-0.63269 4.68398,0.44465 5.72071,2.5918 a 2.5000062,2.5000062 0 0 0 3.33593,1.16602 2.5000062,2.5000062 0 0 0 1.16602,-3.33594 c -1.68363,-3.487 -5.22377,-5.6033 -8.95703,-5.5957 z m -0.22266,27.96289 c 0.74356,0 1.4883,0.22504 2.13086,0.67187 l 37.00586,25.73242 c 0.56544,0.39319 0.5664,0.76524 0.41992,1.23243 -0.14645,0.46722 -0.3601,0.76757 -1.04883,0.76757 h -77.33984 c -0.63905,0 -0.81695,-0.27314 -0.95117,-0.70117 -0.13421,-0.42811 -0.14187,-0.7504 0.38281,-1.11523 l 37.27149,-25.91602 c 0.64256,-0.44683 1.38535,-0.67187 2.1289,-0.67187 z"
       transform="scale(0.26458333)" />
    <path
       id="rect10420"
       style="color:#000000;fill:#782121;fill-opacity:1;stroke-width:3.77953;stroke-linecap:round;stroke-linejoin:round;-inkscape-stroke:none;paint-order:stroke fill markers"
       d="m 426.44531,723.39648 c -4.65124,0 -8.46875,3.80696 -8.46875,8.45899 v 3.16015 h -16.73437 c -4.86743,0 -8.85742,3.99 -8.85742,8.85743 v 38.18554 c 0,4.86743 3.98999,8.86719 8.85742,8.86719 h 65.05664 c 4.86742,0 8.86523,-3.99976 8.86523,-8.86719 v -38.18554 c 0,-4.86743 -3.99781,-8.85743 -8.86523,-8.85743 h -16.73438 v -3.16015 c 0,-4.65128 -3.80774,-8.45899 -8.45898,-8.45899 z m 0,4.19141 h 14.66016 c 2.40011,0 4.26562,1.86747 4.26562,4.26758 v 3.16015 h -23.19336 v -3.16015 c 0,-2.39936 1.86751,-4.26758 4.26758,-4.26758 z m -25.20312,12.42383 h 65.05664 c 2.18388,0 3.86133,1.6774 3.86133,3.86133 v 5.98828 l -36.28907,20.94726 -36.48828,-21.06836 v -5.86718 c 0,-2.18393 1.67549,-3.86133 3.85938,-3.86133 z m -3.85938,15.49805 36.48828,21.07226 36.28907,-20.95312 v 26.42968 c 0,2.18389 -1.67745,3.86914 -3.86133,3.86914 h -65.05664 c -2.18389,0 -3.85938,-1.68525 -3.85938,-3.86914 z m 36.38867,3.1875 a 2.8294771,2.8294771 0 0 0 -2.83007,2.83007 2.8294771,2.8294771 0 0 0 2.83007,2.82813 2.8294771,2.8294771 0 0 0 2.83008,-2.82813 2.8294771,2.8294771 0 0 0 -2.83008,-2.83007 z"
       transform="scale(0.26458333)" />
    <path
       id="path11655"
       style="color:#000000;fill:#782121;fill-opacity:1;stroke:none;stroke-width:3.77953;stroke-linecap:round;stroke-linejoin:round;-inkscape-stroke:none;paint-order:stroke fill markers"
       d="m 171.14258,816.11133 c -7.41465,0 -13.47852,6.06583 -13.47852,13.48047 0,7.41464 6.06387,13.47851 13.47852,13.47851 7.41464,0 13.47851,-6.06387 13.47851,-13.47851 0,-7.41464 -6.06387,-13.48047 -13.47851,-13.48047 z m 0,4.99805 c 4.71244,0 8.48242,3.76999 8.48242,8.48242 0,4.71246 -3.76998,8.47461 -8.48242,8.47461 -4.71245,0 -8.47461,-3.76215 -8.47461,-8.47461 0,-4.71243 3.76216,-8.48242 8.47461,-8.48242 z m -28.39844,2.54687 c -5.9499,0 -10.82226,4.88016 -10.82226,10.83008 0,5.94988 4.87236,10.82812 10.82226,10.82812 5.9499,0 10.83008,-4.87824 10.83008,-10.82812 0,-5.94992 -4.88018,-10.83008 -10.83008,-10.83008 z m 56.76758,0 c -5.9499,0 -10.82227,4.88016 -10.82227,10.83008 0,5.94988 4.87237,10.82812 10.82227,10.82812 5.9499,0 10.82812,-4.87824 10.82812,-10.82812 0,-5.94992 -4.87822,-10.83008 -10.82812,-10.83008 z m -56.76758,5.00586 c 3.2477,0 5.83203,2.57651 5.83203,5.82422 0,3.24767 -2.58433,5.82422 -5.83203,5.82422 -3.2477,0 -5.82422,-2.57655 -5.82422,-5.82422 0,-3.24771 2.57652,-5.82422 5.82422,-5.82422 z m 56.76758,0 c 3.2477,0 5.83203,2.57651 5.83203,5.82422 0,3.24767 -2.58433,5.82422 -5.83203,5.82422 -3.2477,0 -5.82422,-2.57655 -5.82422,-5.82422 0,-3.24771 2.57652,-5.82422 5.82422,-5.82422 z m -56.76758,19.14844 c -12.38176,-1.2e-4 -22.70564,9.58918 -23.61523,21.9375 a 2.5002499,2.5002499 0 0 0 1.625,2.5332 c 5.59509,2.07186 11.78913,3.31061 18.16601,3.66797 0.0181,-0.24265 0.037,-0.48535 0.0606,-0.72656 0.0257,-0.26155 0.0541,-0.52183 0.0859,-0.78125 0.0317,-0.25928 0.0676,-0.51797 0.10547,-0.77539 0.0379,-0.25739 0.0792,-0.51423 0.12304,-0.76954 0.0439,-0.25549 0.0908,-0.51048 0.14063,-0.76367 0.0498,-0.25323 0.10253,-0.50493 0.1582,-0.75586 0.0314,-0.14173 0.0664,-0.2812 0.0996,-0.42187 -5.26816,-0.33033 -10.3087,-1.46947 -15.00586,-2.98438 1.70126,-8.65716 9.0183,-15.16413 18.05664,-15.16406 2.48722,1.5e-4 4.84288,0.49586 6.98828,1.39063 0.17662,-0.15648 0.35516,-0.31032 0.53516,-0.46289 0.18845,-0.15988 0.37823,-0.31897 0.57031,-0.47461 0.19208,-0.15534 0.3864,-0.30766 0.58203,-0.45899 0.19563,-0.15118 0.39269,-0.30047 0.5918,-0.44726 0.1991,-0.14665 0.39905,-0.29141 0.60156,-0.4336 0.20251,-0.14211 0.40745,-0.28235 0.61328,-0.41992 0.20584,-0.13757 0.41397,-0.27325 0.62305,-0.40625 0.14506,-0.0922 0.29087,-0.18153 0.4375,-0.27148 -3.42632,-1.91936 -7.36774,-3.0115 -11.54297,-3.01172 z m 56.76758,0 c -4.17067,-4e-5 -8.10685,1.08874 -11.5293,3.0039 0.15171,0.093 0.30308,0.18601 0.45313,0.28125 0.20908,0.13304 0.41721,0.26872 0.62304,0.40625 0.20584,0.13758 0.40882,0.27778 0.61133,0.41993 0.20251,0.14211 0.40441,0.28499 0.60352,0.43164 0.1991,0.14664 0.39616,0.29631 0.59179,0.44726 0.19563,0.15118 0.38996,0.30537 0.58204,0.46094 0.19207,0.15534 0.38185,0.31293 0.57031,0.47266 0.17612,0.14929 0.35056,0.302 0.52344,0.45507 2.1406,-0.88989 4.49028,-1.38281 6.9707,-1.38281 9.03766,5.7e-4 16.35332,6.50762 18.05469,15.16406 -4.68756,1.51185 -9.7159,2.64964 -14.97266,2.98242 0.0333,0.14136 0.0681,0.28157 0.0996,0.42383 0.0557,0.25096 0.10839,0.50466 0.1582,0.75782 0.0498,0.25322 0.0967,0.50641 0.14063,0.76171 0.0439,0.2555 0.0832,0.51215 0.12109,0.76954 0.0379,0.25738 0.0737,0.516 0.10547,0.77539 0.0317,0.25927 0.0603,0.51989 0.0859,0.78125 0.0234,0.24037 0.0442,0.48241 0.0625,0.72461 6.3675,-0.35982 12.557,-1.59767 18.14258,-3.66602 a 2.5002499,2.5002499 0 0 0 1.62304,-2.5332 c -0.90954,-12.34764 -11.23996,-21.93675 -23.62109,-21.9375 z m -28.36914,0.14062 c -15.91582,-1.5e-4 -29.17848,12.32446 -30.34766,28.19727 a 2.5002499,2.5002499 0 0 0 1.625,2.52539 c 8.74582,3.2386 18.64143,4.92722 28.72266,4.93164 a 2.5002499,2.5002499 0 0 0 0.008,0 c 10.08055,-0.004 19.96961,-1.69323 28.71484,-4.93164 a 2.5002499,2.5002499 0 0 0 1.625,-2.52539 c -1.16912,-15.87198 -14.43265,-28.19629 -30.34765,-28.19727 z m 0,4.9961 c 12.64111,7.9e-4 22.92913,9.32354 24.83984,21.60742 -7.62621,2.54415 -16.10211,4.04797 -24.83203,4.05273 -8.73309,-0.004 -17.21093,-1.50767 -24.83984,-4.05273 1.91102,-12.28426 12.1904,-21.6075 24.83203,-21.60742 z"
       transform="scale(0.26458333)" />
    <path
       id="path966"
       style="color:#000000;fill:#782121;fill-opacity:1;stroke-width:3.77953;stroke-linecap:round;stroke-linejoin:round;-inkscape-stroke:none;paint-order:stroke fill markers"
       d="m 308.65234,815.90625 c -9.36297,0 -17.9034,3.58542 -24.32031,9.45508 -10e-4,0.001 -0.003,0.003 -0.004,0.004 -0.0221,0.0202 -0.0443,0.0403 -0.0664,0.0606 -0.21589,0.19852 -0.42963,0.39986 -0.64063,0.60352 -0.002,0.002 -0.004,0.002 -0.006,0.004 -0.051,0.0492 -0.10162,0.0989 -0.15234,0.14844 -0.18067,0.1765 -0.3582,0.35493 -0.53516,0.53516 -0.0656,0.0667 -0.1303,0.13396 -0.19531,0.20117 -0.003,0.003 -0.007,0.006 -0.01,0.01 -0.12958,0.13414 -0.25726,0.27013 -0.38477,0.40625 -0.008,0.009 -0.0169,0.0183 -0.0254,0.0273 -0.10074,0.10776 -0.20145,0.21532 -0.30078,0.32422 -0.003,0.003 -0.007,0.006 -0.01,0.01 -0.15807,0.1734 -0.31403,0.34893 -0.46875,0.52539 -0.0285,0.0326 -0.0595,0.063 -0.0879,0.0957 -0.009,0.0104 -0.0183,0.0208 -0.0273,0.0312 -0.20747,0.23889 -0.4101,0.48224 -0.61133,0.72656 -0.004,0.005 -0.008,0.0106 -0.0117,0.0156 -0.047,0.0572 -0.094,0.11439 -0.14062,0.17188 -4.41294,5.43104 -7.27794,12.16547 -7.92188,19.5293 -3.4e-4,0.004 -0.002,0.008 -0.002,0.0117 -0.002,0.0201 -0.002,0.0404 -0.004,0.0606 -0.0235,0.27459 -0.0433,0.54988 -0.0605,0.82617 -10e-4,0.0189 -0.003,0.0378 -0.004,0.0566 -0.004,0.0665 -0.01,0.13271 -0.0137,0.19922 -0.0154,0.27834 -0.0261,0.55793 -0.0352,0.83789 -5.2e-4,0.0163 -0.001,0.0325 -0.002,0.0488 -0.001,0.0352 -0.003,0.0703 -0.004,0.10547 -0.009,0.33932 -0.0156,0.67991 -0.0156,1.02148 a 2.5002562,2.5002562 0 0 0 0,0.008 c 1e-5,0.0144 -3e-5,0.0286 0,0.043 4.5e-4,0.32319 0.007,0.64562 0.0156,0.96679 1.5e-4,0.005 -1.5e-4,0.0104 0,0.0156 0.002,0.0645 0.006,0.12889 0.008,0.19336 0.009,0.25846 0.0191,0.51636 0.0332,0.77343 2.8e-4,0.005 -2.9e-4,0.0104 0,0.0156 0.006,0.10167 0.0129,0.20316 0.0195,0.30469 0.0158,0.24693 0.034,0.49271 0.0547,0.73828 0.005,0.0541 0.009,0.1081 0.0137,0.16211 0.49658,5.58284 2.26869,10.80335 5.02539,15.36719 0.0117,0.0195 0.0234,0.0391 0.0352,0.0586 0.16687,0.27509 0.33776,0.54813 0.51171,0.81836 0.004,0.006 0.006,0.012 0.01,0.0176 0.0604,0.094 0.12421,0.18579 0.18555,0.27929 0.0993,0.15106 0.19728,0.30366 0.29882,0.45313 0.10578,0.15608 0.214,0.31036 0.32227,0.46484 0.0666,0.0948 0.13369,0.18907 0.20117,0.28321 8.4e-4,10e-4 10e-4,0.003 0.002,0.004 0.11979,0.16742 0.24252,0.33259 0.36524,0.49805 0.007,0.009 0.0129,0.0184 0.0195,0.0273 0.0345,0.0463 0.0688,0.0926 0.10352,0.13867 0.004,0.005 0.008,0.0104 0.0117,0.0156 0.15229,0.20264 0.30621,0.40394 0.4629,0.60351 0.88828,1.13146 1.84747,2.21167 2.87304,3.23633 0.20262,0.20244 0.40743,0.40363 0.61524,0.60157 6.6e-4,6.3e-4 0.001,0.001 0.002,0.002 0.003,0.003 0.007,0.005 0.01,0.008 0.028,0.0267 0.0559,0.0535 0.084,0.0801 0.50356,0.47615 1.02142,0.93794 1.55469,1.38672 0.0332,0.0279 0.0663,0.0561 0.0996,0.084 0.08,0.067 0.15967,0.13486 0.24023,0.20117 0.009,0.008 0.0181,0.0158 0.0274,0.0234 0.1259,0.10313 0.25337,0.20507 0.38085,0.30664 0.11335,0.0906 0.22735,0.1803 0.3418,0.26953 7.2e-4,5.6e-4 0.001,10e-4 0.002,0.002 0.059,0.0458 0.11648,0.0932 0.17579,0.13867 a 2.5002562,2.5002562 0 0 0 0.0254,0.0156 c 6.0806,4.67239 13.68575,7.45508 21.92968,7.45508 9.00021,0 17.2376,-3.31528 23.56055,-8.78711 0.002,-0.002 0.005,-0.004 0.008,-0.006 0.005,-0.004 0.009,-0.008 0.0137,-0.0117 0.22962,-0.19902 0.45713,-0.4008 0.68164,-0.60546 0.002,-0.002 0.004,-0.004 0.006,-0.006 0.14084,-0.12821 0.27937,-0.25845 0.41796,-0.38868 0.0775,-0.0729 0.15557,-0.14512 0.23243,-0.21875 0.16022,-0.15325 0.31748,-0.3089 0.47461,-0.46484 0.0291,-0.0289 0.0589,-0.057 0.0879,-0.0859 0.029,-0.029 0.0571,-0.0588 0.0859,-0.0879 0.14005,-0.14089 0.2785,-0.28277 0.41602,-0.42578 0.0125,-0.013 0.0247,-0.0261 0.0371,-0.0391 0.0618,-0.0645 0.1242,-0.12838 0.18555,-0.19336 0.15832,-0.16762 0.31583,-0.33546 0.4707,-0.50586 0.55488,-0.61054 1.08601,-1.24025 1.5957,-1.88477 0.0265,-0.0335 0.0538,-0.0661 0.0801,-0.0996 0.01,-0.0124 0.0196,-0.0247 0.0293,-0.0371 0.11139,-0.14228 0.22091,-0.28585 0.33007,-0.42969 0.002,-0.003 0.004,-0.005 0.006,-0.008 0.0979,-0.12886 0.19483,-0.25848 0.29102,-0.38868 0.007,-0.01 0.016,-0.0192 0.0234,-0.0293 0.0906,-0.12314 0.18053,-0.24688 0.26953,-0.3711 0.002,-0.003 0.004,-0.007 0.006,-0.01 0.0822,-0.1146 0.16324,-0.23011 0.24414,-0.34571 0.005,-0.007 0.009,-0.013 0.0137,-0.0195 0.0795,-0.11397 0.16015,-0.22696 0.23828,-0.34179 0.17243,-0.25289 0.3417,-0.5082 0.50781,-0.76563 0.007,-0.0103 0.0129,-0.0209 0.0195,-0.0312 3.26267,-5.06735 5.29072,-11.00076 5.6582,-17.37305 1.1e-4,-0.002 -1.2e-4,-0.004 0,-0.006 0.018,-0.31352 0.033,-0.62776 0.043,-0.94335 10e-4,-0.0319 0.003,-0.0637 0.004,-0.0957 3.7e-4,-0.0124 -3.5e-4,-0.0248 0,-0.0371 0.009,-0.33543 0.0156,-0.67213 0.0156,-1.00976 a 2.5002562,2.5002562 0 0 0 0,-0.002 2.5002562,2.5002562 0 0 0 0,-0.002 2.5002562,2.5002562 0 0 0 0,-0.002 2.5002562,2.5002562 0 0 0 0,-0.002 c 0,-0.3455 -0.006,-0.69 -0.0156,-1.0332 -1.4e-4,-0.005 1.5e-4,-0.0104 0,-0.0156 -10e-4,-0.0418 -0.004,-0.0832 -0.006,-0.125 -0.009,-0.28193 -0.0196,-0.56348 -0.0351,-0.84375 -0.004,-0.0789 -0.0107,-0.15751 -0.0156,-0.23633 -0.0167,-0.27035 -0.0359,-0.53988 -0.0586,-0.8086 -0.005,-0.0553 -0.0106,-0.1107 -0.0156,-0.16601 -0.0267,-0.29951 -0.0578,-0.59715 -0.0918,-0.89453 -0.002,-0.0143 -0.002,-0.0287 -0.004,-0.043 -0.002,-0.015 -0.004,-0.0299 -0.006,-0.0449 -0.44239,-3.78752 -1.47184,-7.39847 -2.99805,-10.73633 -0.0459,-0.10076 -0.0938,-0.20046 -0.14062,-0.30078 -0.0798,-0.17044 -0.15977,-0.3408 -0.24219,-0.50977 -0.0709,-0.14582 -0.14396,-0.29069 -0.21679,-0.43555 -0.003,-0.006 -0.006,-0.013 -0.01,-0.0195 -0.0537,-0.1063 -0.10737,-0.21266 -0.16211,-0.31836 -10e-4,-0.003 -0.003,-0.005 -0.004,-0.008 -0.10743,-0.20806 -0.21665,-0.41514 -0.32812,-0.62109 -0.002,-0.005 -0.005,-0.009 -0.008,-0.0137 -0.004,-0.008 -0.009,-0.0155 -0.0137,-0.0234 -0.008,-0.0143 -0.0156,-0.0286 -0.0234,-0.043 -2.37584,-4.36293 -5.65372,-8.24447 -9.69727,-11.34961 a 2.5002562,2.5002562 0 0 0 -0.0937,-0.0566 c -6.06935,-4.64378 -13.64973,-7.40625 -21.86719,-7.40625 z m -2.5039,5.09766 c 3.2e-4,9.48639 -3e-5,18.97271 0,28.45898 -1.15294,0 -2.30605,10e-6 -3.45899,0 -0.58933,-8.94392 -4.32604,-17.38989 -10.53711,-23.83398 4.11436,-2.57843 8.87798,-4.21895 13.9961,-4.625 z m 4.99804,0 c 5.1277,0.40554 9.90037,2.04908 14.01954,4.63476 -6.21739,6.43832 -9.96146,14.88023 -10.5586,23.82422 -1.15358,10e-6 -2.30736,0 -3.46094,0 -2e-5,-9.48624 3.2e-4,-18.97254 0,-28.45898 z m -23.01562,8.30664 c 5.347,5.52195 8.89826,12.5274 9.54102,20.15234 -6.65606,-8e-5 -13.31185,2.3e-4 -19.96876,0 0.70066,-7.79452 4.61041,-14.86041 10.42774,-20.15234 z m 41.05664,0 c 5.81226,5.29645 9.7123,12.35907 10.40625,20.15234 -6.65581,2.3e-4 -13.31155,-8e-5 -19.9668,0 0.65047,-7.62651 4.20613,-14.63599 9.56055,-20.15234 z m -51.48438,25.15039 c 6.65629,2.3e-4 13.31141,-8e-5 19.9668,0 -0.64966,7.61982 -4.20053,14.62363 -9.54687,20.13867 -5.81252,-5.29154 -9.71955,-12.34909 -10.41993,-20.13867 z m 24.98438,0 c 1.15359,10e-6 2.30736,-1e-5 3.46094,0 -3e-5,9.48687 3.2e-4,18.97452 0,28.46094 -0.22647,-0.018 -0.45268,-0.0378 -0.67774,-0.0606 -4.86744,-0.49284 -9.39817,-2.10552 -13.33398,-4.57617 6.21465,-6.43885 9.95461,-14.88173 10.55078,-23.82422 z m 8.45898,0 c 1.15358,-1e-5 2.30737,10e-6 3.46094,0 0.59621,8.94294 4.33948,17.38525 10.55469,23.82422 -3.93438,2.46997 -8.46369,4.08341 -13.33008,4.57617 -0.22762,0.0231 -0.45648,0.0424 -0.68555,0.0606 3.2e-4,-9.48646 -2e-5,-18.9741 0,-28.46094 z m 8.48047,0 c 6.65523,-8e-5 13.31096,2.3e-4 19.9668,0 -0.70036,7.78978 -4.60723,14.84695 -10.41992,20.13867 -5.34623,-5.51489 -8.89725,-12.51896 -9.54688,-20.13867 z"
       transform="scale(0.26458333)" />
    <path
       id="rect1767"
       style="color:#000000;fill:#782121;fill-opacity:1;stroke-width:3.77953;stroke-linecap:round;stroke-linejoin:round;-inkscape-stroke:none;paint-order:stroke fill markers"
       d="m 435.06641,818.13477 -41.9668,23.64453 a 2.5000062,2.5000062 0 0 0 -0.95117,3.41015 2.5000062,2.5000062 0 0 0 3.40234,0.94532 l 7.24024,-4.07813 v 33.97461 c 0,3.93328 3.25031,7.17578 7.18359,7.17578 h 15.04883 a 2.5002562,2.5002562 0 0 0 0.66015,0.0957 h 16.18164 a 2.5002562,2.5002562 0 0 0 0.68555,-0.0957 h 15.0293 c 3.93324,0 7.17383,-3.2425 7.17383,-7.17578 v -34.97852 l 7.21484,4.16602 a 2.5000062,2.5000062 0 0 0 3.41797,-0.91602 2.5000062,2.5000062 0 0 0 -0.91602,-3.41601 z m -0.0293,5.75781 24.7207,14.27539 v 37.86328 c 0,1.24978 -0.92799,2.17773 -2.17773,2.17773 h -13.21289 v -14.24023 c 0,-3.93324 -3.24063,-7.17578 -7.17383,-7.17578 h -6.83594 c -3.9332,0 -7.17578,3.24254 -7.17578,7.17578 v 14.24023 h -13.20703 c -1.24978,0 -2.17773,-0.92795 -2.17773,-2.17773 v -36.79492 z m 11.10937,21.48047 a 2.2614419,2.2614419 0 0 0 -2.26562,2.25976 v 10.03125 a 2.2614419,2.2614419 0 0 0 2.26562,2.25977 h 9.53711 a 2.2614419,2.2614419 0 0 0 2.25977,-2.25977 v -10.03125 a 2.2614419,2.2614419 0 0 0 -2.25977,-2.25976 z m 2.25977,4.52539 h 5.01953 v 5.5 h -5.01953 z m -18.04883,11.89258 h 6.83594 c 1.24978,0 2.17578,0.92792 2.17578,2.17773 v 14.24023 h -11.18945 v -14.24023 c 0,-1.24981 0.92796,-2.17773 2.17773,-2.17773 z"
       transform="scale(0.26458333)" />
    <path
       id="rect3274"
       style="color:#000000;fill:#782121;fill-opacity:1;stroke-width:3.77953;stroke-linecap:round;stroke-linejoin:round;-inkscape-stroke:none;paint-order:stroke fill markers"
       d="m 147.50391,923.82031 c -1.83946,0.007 -4.01602,0.13844 -6.14844,1.07813 -7.24817,3.19396 -9.00018,10.20089 -10.04688,12.26172 a 2.5002499,2.5002499 0 0 0 -0.0215,0.0371 l -10.72656,22.07226 c -3.19884,6.57921 -0.68708,14.60841 5.88281,17.94531 l 0.50195,0.25196 c 3.57218,1.81432 7.41832,1.09569 10.46094,-0.27344 3.04261,-1.36898 5.51127,-3.39121 7.07227,-4.96875 l 6.67968,-6.74609 h 39.90039 l 6.67969,6.74609 c 1.561,1.57754 4.02965,3.59977 7.07227,4.96875 3.04261,1.36898 6.88875,2.08761 10.46093,0.27344 l 0.49414,-0.25196 c 6.56966,-3.33679 9.21163,-11.41885 5.875,-17.98828 a 2.5002499,2.5002499 0 0 0 -0.043,-0.0742 l -12.54297,-22.81836 a 2.5002499,2.5002499 0 0 0 -0.1836,-0.28906 c -0.0883,-0.11868 -1.12604,-2.15103 -2.25976,-4.1543 -1.13373,-2.00326 -2.50182,-4.23812 -4.66406,-5.75976 -2.63655,-1.85537 -5.73431,-2.30273 -8.61524,-2.30274 H 149.2168 c -0.52397,0 -1.09974,-0.0103 -1.71289,-0.008 z m 1.71289,5.00586 h 44.11523 c 2.33571,0 4.33282,0.40101 5.73633,1.38867 0.92327,0.64974 2.18533,2.36984 3.1875,4.14063 0.95586,1.68898 1.54827,3.18283 2.4668,4.48242 l 12.45898,22.66016 c 2.11606,4.17562 0.49867,9.13757 -3.67578,11.25781 a 2.5002499,2.5002499 0 0 0 -0.008,0 l -0.49414,0.25 c -1.80108,0.91476 -3.89614,0.63481 -6.14063,-0.375 -2.24449,-1.00989 -4.40612,-2.73946 -5.57422,-3.91992 l -7.41211,-7.49219 a 2.5002499,2.5002499 0 0 0 -1.77734,-0.74609 H 150.117 a 2.5002499,2.5002499 0 0 0 -1.77735,0.74609 l -7.41211,7.49219 c -1.16809,1.18046 -3.32972,2.91003 -5.57421,3.91992 -2.2445,1.00985 -4.33956,1.29175 -6.14063,0.37695 l -0.49414,-0.25195 a 2.5002499,2.5002499 0 0 0 -0.008,0 c -4.17661,-2.12134 -5.72583,-7.0402 -3.6543,-11.30078 l 10.72656,-22.07227 -0.0156,0.043 c 1.75582,-3.45698 2.4459,-7.67647 7.60351,-9.94922 1.37222,-0.60465 3.64372,-0.65039 5.84571,-0.65039 z m 41.82226,5.14649 a 3.1031439,3.1031439 0 0 0 -3.10156,3.10351 3.1031439,3.1031439 0 0 0 3.10156,3.10352 3.1031439,3.1031439 0 0 0 3.10352,-3.10352 3.1031439,3.1031439 0 0 0 -3.10352,-3.10351 z m -41.87304,0.18359 c -4.60128,0 -8.38672,3.78349 -8.38672,8.38477 0,4.60127 3.78544,8.38671 8.38672,8.38671 4.60127,0 8.38476,-3.78544 8.38476,-8.38671 0,-4.60128 -3.78349,-8.38477 -8.38476,-8.38477 z m 0,5.00391 c 1.89907,0 3.38086,1.48176 3.38086,3.38086 0,1.89906 -1.48179,3.38867 -3.38086,3.38867 -1.89908,0 -3.38868,-1.48961 -3.38868,-3.38867 0,-1.8991 1.4896,-3.38086 3.38868,-3.38086 z m 35.92578,0.75976 a 3.1031439,3.1031439 0 0 0 -3.10352,3.10352 3.1031439,3.1031439 0 0 0 3.10352,3.10351 3.1031439,3.1031439 0 0 0 3.10351,-3.10351 3.1031439,3.1031439 0 0 0 -3.10351,-3.10352 z m 11.89648,0 a 3.1031439,3.1031439 0 0 0 -3.10351,3.10352 3.1031439,3.1031439 0 0 0 3.10351,3.10351 3.1031439,3.1031439 0 0 0 3.10352,-3.10351 3.1031439,3.1031439 0 0 0 -3.10352,-3.10352 z m -5.94922,5.94727 a 3.1031439,3.1031439 0 0 0 -3.10156,3.10351 3.1031439,3.1031439 0 0 0 3.10156,3.10352 3.1031439,3.1031439 0 0 0 3.10352,-3.10352 3.1031439,3.1031439 0 0 0 -3.10352,-3.10351 z m -31.87109,5.65039 a 2.4999999,2.4999999 0 0 0 -2.50195,2.5039 2.4999999,2.4999999 0 0 0 2.50195,2.49414 h 22.65625 a 2.4999999,2.4999999 0 0 0 2.50195,-2.49414 2.4999999,2.4999999 0 0 0 -2.50195,-2.5039 z"
       transform="scale(0.26458333)" />
    <path
       id="path16352"
       style="color:#000000;fill:#782121;fill-opacity:1;stroke-width:1;stroke-linejoin:round;-inkscape-stroke:none;paint-order:fill markers stroke"
       d="m 118.76871,241.85712 a 0.66152611,0.66152611 0 0 0 -0.006,0.001 h -11.72435 a 0.61865054,0.70736787 48.827671 0 0 -0.75241,0.65836 l -1.98437,14.76189 a 0.61865054,0.70736787 48.827671 0 0 0.37155,0.62011 l 2.52594,2.18127 a 0.66152611,0.66152611 0 0 0 0.4315,0.16019 h 11.85561 v -0.003 a 0.66152611,0.66152611 0 0 0 0.65422,-0.56999 l 1.98438,-14.76189 a 0.66152611,0.66152611 0 0 0 -0.73277,-0.74414 c 0,0 -0.53523,0.0828 -1.2051,-0.42375 -0.17774,-0.13439 -0.4015,-0.48276 -0.53898,-0.80253 -0.0919,-0.2139 -0.1483,-0.39106 -0.17725,-0.4899 a 0.61865054,0.70736787 48.827671 0 0 -0.57671,-0.58704 h -0.10801 a 0.66152611,0.66152611 0 0 0 -0.017,-0.001 z m -11.24324,1.31724 h 10.52235 l -1.80557,13.44259 h -10.52339 z m 11.67526,1.35857 c 0.082,0.0842 0.0883,0.18641 0.18758,0.26148 0.47625,0.36013 0.94694,0.49834 1.33945,0.58033 l -1.7849,13.27723 c -0.35917,-0.10913 -0.65888,-0.13839 -0.88883,-0.38293 -0.49218,-0.52341 -0.55389,-1.01124 -0.55863,-1.04489 z m -9.92395,0.95705 a 0.66145997,0.66145997 0 0 0 -0.66197,0.65991 0.66145997,0.66145997 0 0 0 0.66197,0.66197 h 5.8751 a 0.66145997,0.66145997 0 0 0 0.66197,-0.66197 0.66145997,0.66145997 0 0 0 -0.66197,-0.65991 z m -0.36741,2.07584 a 0.66145997,0.66145997 0 0 0 -0.66198,0.66249 0.66145997,0.66145997 0 0 0 0.66198,0.65991 h 2.84582 a 0.66145997,0.66145997 0 0 0 0.66197,-0.65991 0.66145997,0.66145997 0 0 0 -0.66197,-0.66249 z m -2.16576,10.37301 h 9.58081 c 0.10495,0.27992 0.27485,0.63014 0.54518,0.97875 h -8.99325 z" />
    <path
       id="path16250"
       style="color:#000000;fill:#782121;fill-opacity:1;stroke-width:1;stroke-linecap:round;stroke-linejoin:round;-inkscape-stroke:none;paint-order:stroke fill markers"
       d="m 79.814984,244.47655 c -0.893516,0 -1.613167,0.27694 -2.086176,0.78497 -0.470067,0.50488 -0.707895,1.12143 -1.013891,1.82986 l -0.0016,0.006 c -0.001,0.002 -0.0031,0.003 -0.0041,0.006 l -1.263489,2.78691 c -0.504124,-0.0105 -2.621309,-0.0582 -3.755842,-0.0351 -0.77569,0.0159 -1.361302,0.36044 -1.675866,0.75602 -0.314565,0.39557 -0.395874,0.81489 -0.420129,0.94101 l -0.456821,2.38125 c -0.08954,0.46556 0.116903,0.90998 0.402042,1.17772 0.285141,0.26773 0.652801,0.41963 1.058852,0.41963 1.106143,0.009 2.163053,0.0122 3.217373,0.015 0.187584,1.46264 1.447305,2.60398 2.958475,2.60398 1.511872,0 2.771796,-1.14245 2.958476,-2.60604 2.255343,-0.009 4.502285,-0.0226 6.817156,-0.0341 0.0014,0.012 0.0026,0.0242 0.0041,0.0362 0.187587,1.46264 1.447305,2.60398 2.958475,2.60398 1.529361,0 2.800554,-1.16928 2.964162,-2.65721 0.133157,-2.1e-4 0.264104,-5.1e-4 0.40101,-5.1e-4 0.905013,0 1.811679,-0.25452 2.415871,-0.94723 0.604194,-0.69273 0.793242,-1.74014 0.511598,-3.00395 -0.507576,-2.27758 -1.070999,-4.13334 -1.081587,-4.16822 -0.200798,-0.83706 -0.532061,-1.56678 -1.099675,-2.09548 -0.567616,-0.52871 -1.353423,-0.80099 -2.257745,-0.80099 z m 0,1.32189 h 4.045749 l 0.106971,4.08916 -7.06882,0.001 1.019577,-2.25 a 0.66152444,0.66152444 0 0 0 0.0057,-0.0119 c 0.311724,-0.72083 0.54134,-1.21573 0.77153,-1.46296 0.230187,-0.24724 0.449506,-0.36484 1.119309,-0.36484 z m 5.369182,0 H 91.3657 c 0.659003,0 1.048213,0.16131 1.355474,0.44751 0.30726,0.28619 0.550815,0.75246 0.714684,1.43557 a 0.66152444,0.66152444 0 0 0 0.01189,0.0372 c 0,0 0.269428,0.90268 0.595831,2.16784 l -8.750887,0.001 z m -12.323278,5.37487 c 1.329621,0.008 2.994649,0.0434 2.994649,0.0434 a 0.66152444,0.66152444 0 0 0 0.03256,-0.009 0.6614583,0.6614583 0 0 0 0.02997,0.003 l 18.448485,-0.002 c 0.04939,0.21006 0.09856,0.40048 0.147278,0.6191 0.224525,1.00751 0.05391,1.53498 -0.218591,1.84743 -0.272499,0.31244 -0.759703,0.49403 -1.418,0.49403 -0.189881,0 -0.371644,6.6e-4 -0.55604,10e-4 -0.413065,-1.15319 -1.51923,-1.98541 -2.809132,-1.98541 -0.02561,0 -0.05101,3.7e-4 -0.07648,0.001 -1.247762,0.0319 -2.312829,0.84207 -2.72438,1.95956 -0.005,0.0136 -0.0097,0.0272 -0.01447,0.0408 -2.412815,0.0115 -4.751028,0.0252 -7.096726,0.0336 -0.398756,-1.17888 -1.517848,-2.03502 -2.826184,-2.03502 -1.309309,0 -2.429756,0.85736 -2.827734,2.03759 -1.095566,-0.003 -2.194721,-0.007 -3.344497,-0.016 a 0.66152444,0.66152444 0 0 0 -0.0036,0 c -0.04284,0 -0.125413,-0.0332 -0.154514,-0.0605 l 0.451135,-2.34352 c 0.01813,-0.0943 0.05631,-0.24392 0.154515,-0.36743 0.0982,-0.1235 0.220929,-0.24868 0.668176,-0.25786 0.294645,-0.006 0.700391,-0.007 1.143598,-0.004 z m 3.912938,2.33421 c 0.924282,0 1.659848,0.7361 1.659848,1.66037 0,0.92429 -0.735566,1.6583 -1.659848,1.6583 -0.924279,0 -1.658294,-0.73401 -1.658294,-1.6583 0,-0.92427 0.734015,-1.66037 1.658294,-1.66037 z m 12.73824,0 c 0.924283,0 1.659848,0.7361 1.659848,1.66037 0,0.92429 -0.735565,1.6583 -1.659848,1.6583 -0.924279,0 -1.660363,-0.73401 -1.660363,-1.6583 0,-0.0289 6.48e-4,-0.0578 0.0021,-0.0863 0.04404,-0.88347 0.762899,-1.57406 1.658294,-1.57406 z" />
  </g>
</svg>
